<svg xmlns="http://www.w3.org/2000/svg" width="31" height="30" viewBox="0 0 31 30" fill="none">
  <rect x="0.75" y="0.5" width="29" height="29" rx="14.5" fill="white" fill-opacity="0.2"/>
  <rect x="0.75" y="0.5" width="29" height="29" rx="14.5" stroke="url(#paint0_linear_0_77)"/>
  <path d="M11.9395 21.104C11.9395 21.1867 11.8468 21.2529 11.7298 21.2529C11.5968 21.2653 11.504 21.1991 11.504 21.104C11.504 21.0213 11.5968 20.9551 11.7137 20.9551C11.8347 20.9427 11.9395 21.0089 11.9395 21.104ZM10.6855 20.9179C10.6573 21.0006 10.7379 21.0957 10.8589 21.1205C10.9637 21.1619 11.0847 21.1205 11.1089 21.0378C11.1331 20.9551 11.0565 20.86 10.9355 20.8228C10.8306 20.7938 10.7137 20.8352 10.6855 20.9179ZM12.4677 20.8476C12.3508 20.8765 12.2702 20.9551 12.2823 21.0502C12.2944 21.1329 12.3992 21.1867 12.5202 21.1577C12.6371 21.1288 12.7177 21.0502 12.7056 20.9675C12.6935 20.8889 12.5847 20.8352 12.4677 20.8476ZM15.121 5C9.52823 5 5.25 9.35477 5.25 15.0908C5.25 19.6772 8.06452 23.6019 12.0847 24.9832C12.6008 25.0783 12.7823 24.7516 12.7823 24.4827C12.7823 24.2263 12.7702 22.812 12.7702 21.9435C12.7702 21.9435 9.94758 22.5638 9.35484 20.7111C9.35484 20.7111 8.89516 19.5076 8.23387 19.1975C8.23387 19.1975 7.31048 18.5482 8.29839 18.5606C8.29839 18.5606 9.30242 18.6433 9.85484 19.6276C10.7379 21.2239 12.2177 20.7649 12.7944 20.4919C12.8871 19.8302 13.1492 19.3712 13.4395 19.0982C11.1855 18.8418 8.91129 18.5068 8.91129 14.5284C8.91129 13.3911 9.21774 12.8204 9.8629 12.0925C9.75806 11.8237 9.41532 10.7154 9.96774 9.28447C10.8105 9.01565 12.75 10.4011 12.75 10.4011C13.5565 10.1695 14.4234 10.0496 15.2823 10.0496C16.1411 10.0496 17.0081 10.1695 17.8145 10.4011C17.8145 10.4011 19.754 9.01152 20.5968 9.28447C21.1492 10.7195 20.8065 11.8237 20.7016 12.0925C21.3468 12.8245 21.7419 13.3952 21.7419 14.5284C21.7419 18.5192 19.3669 18.8377 17.1129 19.0982C17.4839 19.4249 17.7984 20.0453 17.7984 21.0171C17.7984 22.4108 17.7863 24.1354 17.7863 24.4745C17.7863 24.7433 17.9718 25.07 18.4839 24.9749C22.5161 23.6019 25.25 19.6772 25.25 15.0908C25.25 9.35477 20.7137 5 15.121 5ZM9.16935 19.2636C9.11694 19.305 9.12903 19.4001 9.19758 19.4787C9.2621 19.5449 9.35484 19.5738 9.40726 19.52C9.45968 19.4787 9.44758 19.3836 9.37903 19.305C9.31452 19.2388 9.22177 19.2099 9.16935 19.2636ZM8.73387 18.9287C8.70565 18.9824 8.74597 19.0486 8.82661 19.0899C8.89113 19.1313 8.97177 19.1189 9 19.061C9.02823 19.0072 8.9879 18.9411 8.90726 18.8997C8.82661 18.8749 8.7621 18.8873 8.73387 18.9287ZM10.0403 20.4009C9.97581 20.4547 10 20.5788 10.0927 20.6573C10.1855 20.7524 10.3024 20.7649 10.3548 20.6987C10.4073 20.6449 10.3831 20.5209 10.3024 20.4423C10.2137 20.3472 10.0927 20.3348 10.0403 20.4009ZM9.58065 19.793C9.51613 19.8343 9.51613 19.9419 9.58065 20.037C9.64516 20.1321 9.75403 20.1735 9.80645 20.1321C9.87097 20.0783 9.87097 19.9708 9.80645 19.8757C9.75 19.7806 9.64516 19.7392 9.58065 19.793Z" fill="white"/>
  <defs>
    <linearGradient id="paint0_linear_0_77" x1="15.25" y1="0" x2="15.25" y2="30" gradientUnits="userSpaceOnUse">
      <stop stop-color="white"/>
      <stop offset="1" stop-color="white" stop-opacity="0"/>
    </linearGradient>
  </defs>
</svg>