<svg width="29" height="34" viewBox="0 0 29 34" fill="none" xmlns="http://www.w3.org/2000/svg">
<path id="Vector" d="M27.7023 24.7306L27.702 24.7302C27.6299 24.6507 27.5517 24.5666 27.4684 24.477C26.8644 23.8269 25.9956 22.8919 25.2773 21.3997C24.4578 19.6974 23.8519 17.3262 23.8519 13.8125C23.8519 9.13369 20.6642 5.40382 16.3617 4.48694L15.5701 4.31826V3.50891V2.125C15.5701 1.47904 15.0664 1 14.5 1C13.9336 1 13.4299 1.47904 13.4299 2.125V3.50891V4.31826L12.6383 4.48694C8.33583 5.40382 5.14807 9.13369 5.14807 13.8125C5.14807 17.3262 4.54224 19.6974 3.72274 21.3997C3.0044 22.8919 2.13561 23.8269 1.53156 24.477C1.44833 24.5666 1.37013 24.6507 1.29803 24.7302C1.08537 24.9648 0.998352 25.2317 1.00002 25.4935L27.7023 24.7306ZM27.7023 24.7306C27.9143 24.964 28.0017 25.2312 28 25.4935L28 25.4941C27.9963 26.1177 27.5289 26.625 26.9221 26.625H2.07794C1.4716 26.625 1.00415 26.1182 1.00002 25.4935L27.7023 24.7306ZM17.4901 30.75C17.0797 32.0673 15.8807 33 14.5 33C13.1193 33 11.9203 32.0673 11.5099 30.75H17.4901Z" stroke="white" stroke-width="2"/>
</svg>
